<svg width="506" height="223" viewBox="0 0 506 223" fill="none" xmlns="http://www.w3.org/2000/svg">
<path d="M264.499 26.3984C231.252 26.3984 208.471 50.0387 208.471 82.6043C208.471 115.17 231.172 138.73 264.499 138.73C297.826 138.73 320.366 116.135 320.366 82.6043C320.366 49.0738 296.86 26.3984 264.499 26.3984ZM264.66 118.467C244.857 118.467 231.091 102.546 231.091 82.6043C231.091 62.6629 244.857 46.7419 264.66 46.7419C284.463 46.7419 297.746 61.8588 297.746 82.6043C297.746 103.35 283.497 118.467 264.66 118.467Z" fill="black"/>
<path d="M418.577 27.7656C404.569 27.7656 392.172 36.691 387.664 49.8781L368.425 106.566H368.103L349.105 50.1997C344.597 36.7714 331.958 27.7656 317.79 27.7656L351.922 119.512C355.947 130.287 366.251 137.524 377.843 137.524L418.577 27.7656Z" fill="black"/>
<path d="M470.178 47.305C468.004 41.4351 464.06 36.5302 459.149 33.153C454.158 29.7758 448.282 27.7656 441.922 27.7656L401.27 137.524C414.874 137.524 426.949 128.84 431.296 116.055L431.457 115.572L437.817 96.9977L452.387 53.8181H452.709L467.36 96.9977L473.72 115.572L473.881 116.055C478.228 128.92 490.303 137.524 503.908 137.524L470.258 47.305H470.178Z" fill="black"/>
<path d="M209.924 170.42C209.521 170.42 209.117 170.258 208.875 170.016C208.551 169.774 208.471 169.371 208.471 168.968C208.471 168.564 208.632 168.161 208.875 167.919C209.198 167.677 209.521 167.516 209.924 167.516H227.369C227.773 167.516 228.177 167.677 228.419 167.919C228.742 168.161 228.904 168.564 228.904 168.968C228.904 169.452 228.742 169.774 228.419 170.016C228.096 170.258 227.773 170.42 227.369 170.42H209.924ZM218.647 193.814C218.162 193.814 217.839 193.653 217.516 193.33C217.193 193.008 217.032 192.685 217.032 192.282V169.129H220.181V192.282C220.181 192.685 220.02 193.088 219.697 193.33C219.374 193.572 219.051 193.814 218.566 193.814H218.647Z" fill="black"/>
<path d="M233.992 167.602H247.318C247.722 167.602 248.126 167.763 248.368 168.005C248.61 168.247 248.853 168.65 248.853 169.054C248.853 169.457 248.691 169.86 248.368 170.102C248.045 170.344 247.722 170.506 247.318 170.506H235.204L235.527 169.86V179.38L235.123 178.976H245.541C245.945 178.976 246.349 179.138 246.591 179.38C246.914 179.622 247.076 180.025 247.076 180.428C247.076 180.832 246.914 181.154 246.591 181.477C246.268 181.719 245.945 181.88 245.541 181.88H235.204L235.446 181.558V191.238L235.204 190.996H247.156C247.56 190.996 247.964 191.157 248.206 191.48C248.449 191.803 248.691 192.126 248.691 192.529C248.691 192.932 248.529 193.336 248.206 193.578C247.883 193.82 247.56 193.981 247.156 193.981H233.831C233.427 193.981 233.023 193.82 232.781 193.497C232.458 193.174 232.377 192.852 232.377 192.448V169.215C232.377 168.812 232.538 168.408 232.781 168.166C233.104 167.844 233.427 167.763 233.831 167.763L233.992 167.602Z" fill="black"/>
<path d="M271.788 169.293C272.192 169.535 272.434 169.858 272.515 170.261C272.595 170.664 272.515 171.148 272.192 171.471C271.949 171.794 271.707 171.955 271.303 172.036C270.98 172.036 270.576 172.036 270.253 171.794C269.446 171.31 268.557 170.906 267.588 170.584C266.619 170.261 265.65 170.18 264.6 170.18C263.146 170.18 261.773 170.422 260.562 170.987C259.35 171.471 258.3 172.197 257.331 173.165C256.443 174.133 255.716 175.182 255.231 176.473C254.747 177.763 254.505 179.135 254.505 180.748C254.505 182.362 254.747 183.894 255.312 185.185C255.877 186.476 256.524 187.605 257.493 188.493C258.381 189.38 259.431 190.106 260.723 190.59C261.935 191.074 263.227 191.316 264.681 191.316C265.731 191.316 266.7 191.155 267.669 190.913C268.638 190.671 269.526 190.267 270.334 189.703C270.657 189.541 271.061 189.461 271.384 189.541C271.707 189.541 272.03 189.783 272.272 190.025C272.595 190.429 272.676 190.832 272.595 191.316C272.595 191.719 272.272 192.042 271.868 192.284C271.222 192.687 270.496 193.01 269.769 193.333C268.961 193.656 268.153 193.898 267.265 194.059C266.377 194.22 265.569 194.301 264.681 194.301C262.904 194.301 261.208 193.978 259.593 193.333C257.977 192.687 256.604 191.8 255.393 190.671C254.181 189.461 253.212 188.089 252.485 186.395C251.759 184.701 251.436 182.846 251.436 180.829C251.436 178.893 251.759 177.118 252.485 175.424C253.132 173.811 254.101 172.358 255.312 171.229C256.524 170.1 257.977 169.132 259.512 168.406C261.127 167.76 262.904 167.438 264.761 167.438C266.054 167.438 267.346 167.599 268.557 167.922C269.769 168.244 270.899 168.809 271.949 169.454L271.788 169.293Z" fill="black"/>
<path d="M277.765 167.602C278.168 167.602 278.572 167.763 278.815 168.005C279.138 168.328 279.299 168.65 279.299 169.134V192.287C279.299 192.69 279.138 193.094 278.815 193.336C278.492 193.658 278.168 193.82 277.684 193.82C277.199 193.82 276.796 193.658 276.553 193.336C276.311 193.013 276.149 192.69 276.149 192.287V169.134C276.149 168.65 276.311 168.328 276.634 168.005C276.957 167.682 277.28 167.602 277.765 167.602ZM277.603 178.976H295.048V181.88H277.442V178.976H277.603ZM295.048 167.602C295.532 167.602 295.855 167.763 296.179 168.005C296.502 168.328 296.582 168.65 296.582 169.134V192.287C296.582 192.69 296.421 193.094 296.098 193.336C295.775 193.578 295.452 193.82 294.967 193.82C294.563 193.82 294.159 193.658 293.917 193.336C293.675 193.013 293.433 192.69 293.433 192.287V169.134C293.433 168.65 293.594 168.328 293.917 168.005C294.24 167.682 294.563 167.602 295.048 167.602Z" fill="black"/>
<path d="M319.277 194.22C317.42 194.22 315.805 193.978 314.432 193.413C313.059 192.849 311.686 191.961 310.393 190.751C310.232 190.59 310.07 190.348 309.99 190.187C309.909 189.945 309.828 189.702 309.828 189.46C309.828 189.057 309.99 188.734 310.232 188.412C310.474 188.089 310.878 187.928 311.282 187.928C311.605 187.928 311.928 188.089 312.251 188.331C313.22 189.299 314.27 190.025 315.401 190.509C316.531 190.993 317.824 191.235 319.277 191.235C320.408 191.235 321.377 191.074 322.266 190.671C323.154 190.348 323.881 189.864 324.365 189.218C324.931 188.573 325.173 187.847 325.173 187.04C325.173 186.072 324.85 185.185 324.285 184.54C323.719 183.894 322.912 183.329 321.943 182.926C320.973 182.523 319.843 182.119 318.47 181.797C317.339 181.555 316.289 181.151 315.32 180.748C314.351 180.345 313.543 179.861 312.816 179.296C312.089 178.731 311.605 178.005 311.201 177.199C310.797 176.392 310.636 175.424 310.636 174.294C310.636 172.842 311.04 171.632 311.766 170.583C312.493 169.535 313.543 168.647 314.916 168.083C316.208 167.518 317.743 167.195 319.52 167.195C321.054 167.195 322.508 167.437 323.881 167.921C325.254 168.405 326.304 169.131 327.192 170.019C327.677 170.503 327.919 170.987 327.919 171.39C327.919 171.794 327.757 172.116 327.434 172.439C327.111 172.762 326.788 172.923 326.384 172.923C326.142 172.923 325.819 172.842 325.658 172.6C325.254 172.116 324.688 171.713 324.042 171.31C323.396 170.906 322.669 170.664 321.943 170.422C321.135 170.18 320.408 170.099 319.6 170.099C318.47 170.099 317.42 170.261 316.531 170.583C315.643 170.906 314.997 171.39 314.512 172.036C314.028 172.681 313.785 173.407 313.785 174.214C313.785 175.182 314.028 175.908 314.593 176.553C315.158 177.199 315.885 177.683 316.774 178.086C317.662 178.489 318.712 178.812 319.843 179.135C321.054 179.457 322.185 179.78 323.235 180.183C324.285 180.587 325.173 181.071 325.9 181.635C326.627 182.2 327.273 182.926 327.677 183.814C328.08 184.701 328.323 185.83 328.323 187.121C328.323 188.492 327.919 189.702 327.192 190.832C326.384 191.881 325.335 192.768 324.042 193.333C322.669 193.978 321.216 194.301 319.52 194.301L319.277 194.22Z" fill="black"/>
<path d="M355.863 180.662C355.863 182.598 355.54 184.373 354.894 185.986C354.248 187.6 353.359 189.052 352.229 190.262C351.098 191.472 349.725 192.44 348.191 193.085C346.656 193.731 344.96 194.134 343.103 194.134C341.245 194.134 339.549 193.811 338.015 193.085C336.48 192.44 335.107 191.472 334.057 190.262C332.926 189.052 332.038 187.6 331.392 185.986C330.746 184.373 330.423 182.598 330.423 180.662C330.423 178.726 330.746 176.951 331.392 175.257C332.038 173.644 332.926 172.192 334.057 170.982C335.188 169.772 336.48 168.803 338.015 168.158C339.549 167.513 341.245 167.109 343.103 167.109C344.96 167.109 346.656 167.432 348.191 168.158C349.725 168.803 351.098 169.772 352.229 170.982C353.359 172.192 354.248 173.644 354.894 175.257C355.54 176.871 355.863 178.645 355.863 180.662ZM352.633 180.662C352.633 178.645 352.229 176.79 351.421 175.257C350.613 173.724 349.483 172.434 348.11 171.546C346.737 170.659 345.122 170.175 343.264 170.175C341.407 170.175 339.791 170.659 338.338 171.546C336.965 172.434 335.834 173.644 335.026 175.257C334.219 176.871 333.815 178.645 333.815 180.662C333.815 182.679 334.219 184.454 335.026 186.067C335.834 187.68 336.965 188.891 338.338 189.778C339.791 190.665 341.407 191.149 343.264 191.149C345.122 191.149 346.737 190.665 348.11 189.778C349.483 188.891 350.613 187.6 351.421 186.067C352.229 184.454 352.633 182.679 352.633 180.662Z" fill="black"/>
<path d="M374.438 190.83C374.842 190.83 375.246 190.991 375.488 191.233C375.811 191.556 375.972 191.878 375.972 192.282C375.972 192.685 375.811 193.088 375.488 193.33C375.165 193.572 374.842 193.734 374.438 193.734H361.435C361.031 193.734 360.628 193.572 360.385 193.25C360.062 192.927 359.981 192.604 359.981 192.201V168.968C359.981 168.564 360.143 168.161 360.466 167.919C360.789 167.596 361.112 167.516 361.597 167.516C362.001 167.516 362.404 167.677 362.647 167.919C362.97 168.242 363.131 168.564 363.131 168.968V191.394L362.404 190.749H374.519L374.438 190.83Z" fill="black"/>
<path d="M397.212 167.516C397.616 167.516 398.02 167.677 398.262 168C398.504 168.322 398.666 168.645 398.666 169.048V183.892C398.666 185.828 398.262 187.522 397.293 189.055C396.404 190.588 395.193 191.798 393.739 192.685C392.205 193.572 390.509 194.056 388.651 194.056C386.794 194.056 385.017 193.572 383.482 192.685C381.948 191.798 380.817 190.588 379.929 189.055C379.041 187.522 378.637 185.828 378.637 183.892V169.048C378.637 168.645 378.798 168.242 379.041 168C379.364 167.677 379.687 167.516 380.171 167.516C380.575 167.516 380.898 167.677 381.221 168C381.544 168.322 381.706 168.645 381.706 169.048V183.892C381.706 185.263 382.029 186.473 382.675 187.603C383.321 188.651 384.129 189.539 385.178 190.103C386.228 190.749 387.44 190.991 388.651 190.991C389.863 190.991 391.074 190.668 392.205 190.103C393.255 189.458 394.143 188.651 394.789 187.603C395.435 186.554 395.758 185.344 395.758 183.892V169.048C395.758 168.645 395.92 168.242 396.162 168C396.404 167.677 396.728 167.516 397.212 167.516Z" fill="black"/>
<path d="M403.673 170.42C403.27 170.42 402.866 170.258 402.624 170.016C402.3 169.774 402.22 169.371 402.22 168.968C402.22 168.564 402.381 168.161 402.624 167.919C402.947 167.677 403.27 167.516 403.673 167.516H421.118C421.522 167.516 421.926 167.677 422.168 167.919C422.491 168.161 422.653 168.564 422.653 168.968C422.653 169.452 422.491 169.774 422.168 170.016C421.845 170.258 421.522 170.42 421.118 170.42H403.673ZM412.396 193.814C411.911 193.814 411.588 193.653 411.265 193.33C410.942 193.008 410.781 192.685 410.781 192.282V169.129H413.93V192.282C413.93 192.685 413.769 193.088 413.446 193.33C413.123 193.572 412.8 193.814 412.315 193.814H412.396Z" fill="black"/>
<path d="M429.357 192.287C429.357 192.69 429.195 193.094 428.872 193.336C428.549 193.658 428.226 193.82 427.742 193.82C427.257 193.82 426.853 193.658 426.611 193.336C426.369 193.013 426.207 192.69 426.207 192.287V169.134C426.207 168.65 426.369 168.328 426.692 168.005C427.015 167.682 427.338 167.602 427.822 167.602C428.226 167.602 428.63 167.763 428.872 168.005C429.195 168.328 429.357 168.65 429.357 169.134V192.287Z" fill="black"/>
<path d="M458.673 180.662C458.673 182.598 458.35 184.373 457.703 185.986C457.057 187.6 456.169 189.052 455.038 190.262C453.908 191.472 452.615 192.44 451 193.085C449.466 193.731 447.77 194.134 445.912 194.134C444.055 194.134 442.359 193.811 440.824 193.085C439.29 192.44 437.997 191.472 436.867 190.262C435.736 189.052 434.848 187.6 434.202 185.986C433.555 184.373 433.232 182.598 433.232 180.662C433.232 178.726 433.555 176.951 434.202 175.257C434.848 173.563 435.736 172.192 436.867 170.982C437.997 169.772 439.29 168.803 440.824 168.158C442.359 167.513 444.055 167.109 445.912 167.109C447.77 167.109 449.385 167.432 451 168.158C452.535 168.803 453.908 169.772 455.038 170.982C456.169 172.192 457.057 173.644 457.703 175.257C458.35 176.871 458.673 178.645 458.673 180.662ZM455.442 180.662C455.442 178.645 455.038 176.79 454.231 175.257C453.423 173.724 452.292 172.434 450.919 171.546C449.546 170.659 447.931 170.175 446.074 170.175C444.216 170.175 442.601 170.659 441.147 171.546C439.693 172.434 438.644 173.644 437.836 175.257C437.028 176.871 436.624 178.645 436.624 180.662C436.624 182.679 437.028 184.454 437.836 186.067C438.644 187.68 439.774 188.891 441.147 189.778C442.52 190.665 444.216 191.149 446.074 191.149C447.931 191.149 449.546 190.665 450.919 189.778C452.292 188.891 453.423 187.6 454.231 186.067C455.038 184.454 455.442 182.679 455.442 180.662Z" fill="black"/>
<path d="M482.175 167.596C482.579 167.596 482.902 167.758 483.225 168C483.467 168.242 483.628 168.564 483.628 168.968V192.201C483.628 192.685 483.467 193.088 483.144 193.33C482.821 193.653 482.498 193.734 482.094 193.734C481.852 193.734 481.609 193.734 481.448 193.572C481.206 193.492 481.044 193.33 480.882 193.25L464.811 172.033L465.538 171.549V192.282C465.538 192.282 465.376 193.008 465.134 193.25C464.892 193.492 464.488 193.653 464.084 193.653C463.68 193.653 463.357 193.492 463.115 193.25C462.872 193.008 462.711 192.685 462.711 192.282V168.968C462.711 168.484 462.872 168.161 463.115 167.919C463.438 167.677 463.761 167.516 464.165 167.516C464.407 167.516 464.649 167.516 464.892 167.677C465.134 167.758 465.295 167.919 465.457 168.08L481.286 188.974L480.802 189.619V168.968C480.802 168.968 480.963 168.242 481.206 168C481.448 167.758 481.771 167.596 482.175 167.596Z" fill="black"/>
<path d="M496.874 194.22C495.016 194.22 493.401 193.978 492.028 193.413C490.655 192.849 489.282 191.961 487.99 190.751C487.829 190.59 487.667 190.348 487.586 190.187C487.506 189.945 487.425 189.702 487.425 189.46C487.425 189.057 487.586 188.734 487.829 188.412C488.152 188.089 488.475 187.928 488.879 187.928C489.202 187.928 489.525 188.089 489.848 188.331C490.817 189.299 491.867 190.025 492.997 190.509C494.128 190.993 495.42 191.235 496.874 191.235C498.005 191.235 498.974 191.074 499.862 190.671C500.751 190.348 501.477 189.864 501.962 189.218C502.527 188.573 502.77 187.847 502.77 187.04C502.77 186.072 502.447 185.185 501.881 184.54C501.316 183.894 500.508 183.329 499.539 182.926C498.57 182.523 497.439 182.119 496.147 181.797C495.016 181.555 493.967 181.151 492.997 180.748C492.028 180.345 491.221 179.861 490.494 179.296C489.767 178.731 489.282 178.005 488.879 177.199C488.475 176.392 488.313 175.424 488.313 174.294C488.313 172.842 488.717 171.632 489.444 170.583C490.171 169.535 491.221 168.647 492.594 168.083C493.886 167.518 495.42 167.195 497.197 167.195C498.732 167.195 500.185 167.437 501.558 167.921C502.931 168.405 503.981 169.131 504.869 170.019C505.354 170.503 505.596 170.987 505.596 171.39C505.596 171.794 505.435 172.116 505.112 172.439C504.789 172.762 504.466 172.923 504.062 172.923C503.82 172.923 503.497 172.842 503.335 172.6C502.931 172.116 502.366 171.713 501.72 171.31C501.074 170.906 500.347 170.664 499.62 170.422C498.812 170.18 498.085 170.099 497.278 170.099C496.147 170.099 495.097 170.261 494.209 170.583C493.32 170.906 492.674 171.39 492.19 172.036C491.705 172.681 491.463 173.407 491.463 174.214C491.463 175.182 491.705 175.908 492.271 176.553C492.836 177.199 493.563 177.683 494.451 178.086C495.34 178.489 496.389 178.812 497.52 179.135C498.732 179.457 499.862 179.78 500.912 180.183C501.962 180.587 502.85 181.071 503.577 181.635C504.304 182.2 504.95 182.926 505.354 183.814C505.758 184.701 506 185.83 506 187.121C506 188.492 505.596 189.702 504.869 190.832C504.062 191.881 503.012 192.768 501.72 193.333C500.347 193.978 498.893 194.301 497.197 194.301L496.874 194.22Z" fill="black"/>
<path d="M108.048 111.375C103.305 115.251 97.2071 117.589 90.616 117.589C75.3394 117.589 62.958 105.222 62.958 89.9625C62.958 74.7033 75.3394 62.3359 90.616 62.3359C105.893 62.3359 118.274 74.7033 118.274 89.9625C118.274 95.0694 116.857 99.8687 114.455 103.93C112.792 106.76 110.636 109.283 108.11 111.313L108.048 111.375Z" fill="url(#paint0_linear_1888_300)"/>
<path d="M145.685 163.049L96.2826 220.148C93.2642 223.655 87.8435 223.655 84.8251 220.148L70.5342 203.658L131.764 132.531L139.032 124.101C145.87 114.441 149.935 102.689 149.935 89.9528C149.935 87.6147 149.812 85.2766 149.504 83C151.229 90.322 156.218 118.379 145.685 163.049Z" fill="url(#paint1_linear_1888_300)"/>
<path d="M180.304 87.3635C180.858 109.452 173.405 129.757 160.654 145.693C160.099 146.431 159.483 147.17 158.867 147.847L157.82 149.016L145.685 163.044C156.219 118.374 151.229 90.3169 149.504 82.9949C148.888 77.6419 147.533 72.535 145.562 67.7357C136.137 44.4162 112.237 28.4802 85.0717 30.9413C73.3063 32.0488 62.4648 36.602 53.7178 43.6163C57.1057 38.5094 78.419 10.4521 135.46 12.298C161.578 27.4342 179.503 55.3684 180.304 87.3635Z" fill="url(#paint2_linear_1888_300)"/>
<path d="M31.5415 84.1697C28.6463 114.627 48.974 140.961 76.8783 147.606L49.5284 179.355L20.392 145.699H20.5768C8.25704 130.316 0.926758 110.873 0.926758 89.7073C0.926758 39.7458 41.8285 -0.678833 92.0317 0.121044C107.801 0.36716 122.646 4.73572 135.459 12.3038C88.4589 15.6879 57.105 38.5152 53.7171 43.6221C53.7171 43.6221 53.7171 43.6836 53.6555 43.6836C41.3973 53.4052 33.143 67.8645 31.5415 84.1697Z" fill="url(#paint3_linear_1888_300)"/>
<defs>
<linearGradient id="paint0_linear_1888_300" x1="62.958" y1="89.9625" x2="118.212" y2="89.9625" gradientUnits="userSpaceOnUse">
<stop stop-color="#0897FD"/>
<stop offset="1" stop-color="#39AAFF"/>
</linearGradient>
<linearGradient id="paint1_linear_1888_300" x1="111.374" y1="83" x2="111.374" y2="222.794" gradientUnits="userSpaceOnUse">
<stop stop-color="#0897FD"/>
<stop offset="1" stop-color="#6A0AE9"/>
</linearGradient>
<linearGradient id="paint2_linear_1888_300" x1="117.042" y1="12.2365" x2="117.042" y2="163.044" gradientUnits="userSpaceOnUse">
<stop stop-color="#0897FD"/>
<stop offset="1" stop-color="#6A0AE9"/>
</linearGradient>
<linearGradient id="paint3_linear_1888_300" x1="10.0434" y1="156.589" x2="103.76" y2="-5.93949" gradientUnits="userSpaceOnUse">
<stop stop-color="#0897FD"/>
<stop offset="1" stop-color="#39AAFF"/>
</linearGradient>
</defs>
</svg>
