<svg width="547" height="291" viewBox="0 0 547 291" fill="none" xmlns="http://www.w3.org/2000/svg">
<g clip-path="url(#clip0_1887_233)">
<path d="M139.99 145.383C133.791 150.449 125.822 153.504 117.208 153.504C97.2441 153.504 81.0635 137.342 81.0635 117.401C81.0635 97.4591 97.2441 81.2969 117.208 81.2969C137.172 81.2969 153.353 97.4591 153.353 117.401C153.353 124.074 151.501 130.346 148.362 135.653C146.188 139.352 143.371 142.649 140.07 145.302L139.99 145.383Z" fill="url(#paint0_linear_1887_233)"/>
<path d="M189.176 212.925L124.615 287.544C120.67 292.127 113.586 292.127 109.642 287.544L90.9658 265.994L170.983 173.042L180.482 162.026C189.418 149.401 194.731 134.043 194.731 117.399C194.731 114.343 194.57 111.288 194.167 108.312C196.421 117.881 202.942 154.548 189.176 212.925Z" fill="url(#paint1_linear_1887_233)"/>
<path d="M234.418 114.017C235.142 142.884 225.401 169.419 208.738 190.245C208.013 191.21 207.208 192.175 206.403 193.059L205.035 194.587L189.176 212.92C202.942 154.544 196.421 117.877 194.167 108.308C193.362 101.313 191.591 94.6388 189.015 88.3669C176.699 57.892 145.465 37.066 109.964 40.2824C94.5884 41.7298 80.4203 47.68 68.9893 56.8466C73.4168 50.1727 101.27 13.5062 175.813 15.9185C209.945 35.6991 233.371 72.2048 234.418 114.017Z" fill="url(#paint2_linear_1887_233)"/>
<path d="M305.499 78.3984C272.252 78.3984 249.471 102.039 249.471 134.604C249.471 167.17 272.172 190.73 305.499 190.73C338.826 190.73 361.366 168.135 361.366 134.604C361.366 101.074 337.86 78.3984 305.499 78.3984ZM305.66 170.467C285.857 170.467 272.091 154.546 272.091 134.604C272.091 114.663 285.857 98.7419 305.66 98.7419C325.463 98.7419 338.746 113.859 338.746 134.604C338.746 155.35 324.497 170.467 305.66 170.467Z" fill="black"/>
<path d="M459.577 79.7656C445.569 79.7656 433.172 88.691 428.664 101.878L409.425 158.566H409.103L390.105 102.2C385.597 88.7714 372.958 79.7656 358.79 79.7656L392.922 171.512C396.947 182.287 407.251 189.524 418.843 189.524L459.577 79.7656Z" fill="black"/>
<path d="M511.178 99.305C509.004 93.4351 505.06 88.5302 500.149 85.153C495.158 81.7758 489.282 79.7656 482.922 79.7656L442.27 189.524C455.874 189.524 467.949 180.84 472.296 168.055L472.457 167.572L478.817 148.998L493.387 105.818H493.709L508.36 148.998L514.72 167.572L514.881 168.055C519.228 180.92 531.303 189.524 544.908 189.524L511.258 99.305H511.178Z" fill="black"/>
<path d="M252.208 214.449C251.805 214.449 251.403 214.289 251.161 214.047C250.839 213.806 250.759 213.404 250.759 213.002C250.759 212.6 250.92 212.198 251.161 211.957C251.483 211.716 251.805 211.555 252.208 211.555H269.596C269.998 211.555 270.401 211.716 270.642 211.957C270.964 212.198 271.125 212.6 271.125 213.002C271.125 213.485 270.964 213.806 270.642 214.047C270.32 214.289 269.998 214.449 269.596 214.449H252.208ZM260.902 237.768C260.419 237.768 260.097 237.607 259.775 237.286C259.453 236.964 259.292 236.642 259.292 236.24V213.163H262.431V236.24C262.431 236.642 262.27 237.044 261.948 237.286C261.626 237.527 261.304 237.768 260.821 237.768H260.902Z" fill="black"/>
<path d="M276.197 211.641H289.479C289.882 211.641 290.284 211.801 290.526 212.043C290.767 212.284 291.009 212.686 291.009 213.088C291.009 213.49 290.848 213.892 290.526 214.133C290.204 214.375 289.882 214.535 289.479 214.535H277.404L277.726 213.892V223.38L277.324 222.978H287.708C288.111 222.978 288.513 223.139 288.755 223.38C289.077 223.622 289.238 224.024 289.238 224.426C289.238 224.828 289.077 225.149 288.755 225.471C288.433 225.712 288.111 225.873 287.708 225.873H277.404L277.646 225.551V235.2L277.404 234.959H289.318C289.721 234.959 290.123 235.12 290.365 235.442C290.606 235.763 290.848 236.085 290.848 236.487C290.848 236.889 290.687 237.291 290.365 237.532C290.043 237.774 289.721 237.934 289.318 237.934H276.036C275.633 237.934 275.231 237.774 274.989 237.452C274.667 237.13 274.587 236.809 274.587 236.407V213.249C274.587 212.847 274.748 212.445 274.989 212.203C275.311 211.882 275.633 211.801 276.036 211.801L276.197 211.641Z" fill="black"/>
<path d="M313.871 213.326C314.274 213.567 314.515 213.889 314.596 214.291C314.676 214.693 314.596 215.175 314.274 215.497C314.032 215.819 313.791 215.979 313.388 216.06C313.066 216.06 312.664 216.06 312.342 215.819C311.537 215.336 310.651 214.934 309.685 214.613C308.719 214.291 307.753 214.21 306.706 214.21C305.257 214.21 303.889 214.452 302.681 215.015C301.474 215.497 300.427 216.221 299.461 217.186C298.576 218.151 297.851 219.196 297.368 220.482C296.885 221.769 296.644 223.136 296.644 224.744C296.644 226.352 296.885 227.88 297.449 229.167C298.012 230.453 298.656 231.579 299.622 232.463C300.508 233.348 301.554 234.071 302.842 234.554C304.05 235.036 305.338 235.278 306.787 235.278C307.834 235.278 308.8 235.117 309.766 234.876C310.732 234.634 311.617 234.232 312.422 233.669C312.744 233.509 313.147 233.428 313.469 233.509C313.791 233.509 314.113 233.75 314.354 233.991C314.676 234.393 314.757 234.795 314.676 235.278C314.676 235.68 314.354 236.001 313.952 236.243C313.308 236.645 312.583 236.966 311.859 237.288C311.054 237.609 310.249 237.851 309.363 238.012C308.478 238.172 307.673 238.253 306.787 238.253C305.016 238.253 303.325 237.931 301.715 237.288C300.105 236.645 298.737 235.76 297.529 234.634C296.322 233.428 295.356 232.061 294.631 230.373C293.907 228.684 293.585 226.835 293.585 224.824C293.585 222.895 293.907 221.126 294.631 219.437C295.275 217.829 296.241 216.382 297.449 215.256C298.656 214.13 300.105 213.165 301.635 212.441C303.245 211.798 305.016 211.477 306.868 211.477C308.156 211.477 309.444 211.637 310.651 211.959C311.859 212.281 312.986 212.844 314.032 213.487L313.871 213.326Z" fill="black"/>
<path d="M319.828 211.641C320.23 211.641 320.633 211.801 320.874 212.043C321.196 212.364 321.357 212.686 321.357 213.168V236.246C321.357 236.648 321.196 237.05 320.874 237.291C320.552 237.613 320.23 237.774 319.747 237.774C319.264 237.774 318.862 237.613 318.62 237.291C318.379 236.969 318.218 236.648 318.218 236.246V213.168C318.218 212.686 318.379 212.364 318.701 212.043C319.023 211.721 319.345 211.641 319.828 211.641ZM319.667 222.978H337.055V225.873H319.506V222.978H319.667ZM337.055 211.641C337.538 211.641 337.86 211.801 338.182 212.043C338.504 212.364 338.584 212.686 338.584 213.168V236.246C338.584 236.648 338.423 237.05 338.101 237.291C337.779 237.532 337.457 237.774 336.974 237.774C336.572 237.774 336.169 237.613 335.928 237.291C335.686 236.969 335.445 236.648 335.445 236.246V213.168C335.445 212.686 335.606 212.364 335.928 212.043C336.25 211.721 336.572 211.641 337.055 211.641Z" fill="black"/>
<path d="M361.206 238.171C359.354 238.171 357.744 237.93 356.376 237.367C355.007 236.804 353.639 235.92 352.351 234.714C352.19 234.553 352.029 234.312 351.948 234.151C351.868 233.91 351.787 233.668 351.787 233.427C351.787 233.025 351.948 232.704 352.19 232.382C352.431 232.06 352.834 231.899 353.236 231.899C353.558 231.899 353.88 232.06 354.202 232.302C355.168 233.266 356.215 233.99 357.342 234.473C358.469 234.955 359.757 235.196 361.206 235.196C362.333 235.196 363.299 235.035 364.184 234.633C365.07 234.312 365.794 233.829 366.277 233.186C366.841 232.543 367.082 231.819 367.082 231.015C367.082 230.05 366.76 229.166 366.197 228.522C365.633 227.879 364.828 227.316 363.862 226.914C362.896 226.512 361.769 226.11 360.401 225.788C359.274 225.547 358.227 225.145 357.261 224.743C356.295 224.341 355.49 223.859 354.766 223.296C354.041 222.733 353.558 222.009 353.156 221.205C352.753 220.401 352.592 219.436 352.592 218.31C352.592 216.863 352.995 215.657 353.719 214.612C354.444 213.566 355.49 212.682 356.859 212.119C358.147 211.556 359.676 211.234 361.447 211.234C362.977 211.234 364.426 211.476 365.794 211.958C367.163 212.441 368.209 213.164 369.095 214.049C369.578 214.531 369.819 215.014 369.819 215.416C369.819 215.818 369.658 216.139 369.336 216.461C369.014 216.783 368.692 216.943 368.29 216.943C368.048 216.943 367.726 216.863 367.565 216.622C367.163 216.139 366.599 215.737 365.955 215.335C365.311 214.933 364.587 214.692 363.862 214.451C363.057 214.21 362.333 214.129 361.528 214.129C360.401 214.129 359.354 214.29 358.469 214.612C357.583 214.933 356.939 215.416 356.456 216.059C355.973 216.702 355.732 217.426 355.732 218.23C355.732 219.195 355.973 219.919 356.537 220.562C357.1 221.205 357.825 221.688 358.71 222.09C359.596 222.492 360.642 222.813 361.769 223.135C362.977 223.457 364.104 223.778 365.15 224.18C366.197 224.582 367.082 225.065 367.807 225.628C368.531 226.19 369.175 226.914 369.578 227.799C369.98 228.683 370.222 229.809 370.222 231.095C370.222 232.462 369.819 233.668 369.095 234.794C368.29 235.84 367.243 236.724 365.955 237.287C364.587 237.93 363.138 238.252 361.447 238.252L361.206 238.171Z" fill="black"/>
<path d="M397.672 224.665C397.672 226.595 397.35 228.364 396.706 229.972C396.062 231.58 395.177 233.027 394.05 234.234C392.923 235.44 391.554 236.405 390.025 237.048C388.495 237.691 386.805 238.093 384.953 238.093C383.102 238.093 381.411 237.772 379.881 237.048C378.352 236.405 376.983 235.44 375.937 234.234C374.81 233.027 373.924 231.58 373.28 229.972C372.636 228.364 372.314 226.595 372.314 224.665C372.314 222.735 372.636 220.966 373.28 219.278C373.924 217.669 374.81 216.222 375.937 215.016C377.064 213.81 378.352 212.845 379.881 212.202C381.411 211.558 383.102 211.156 384.953 211.156C386.805 211.156 388.495 211.478 390.025 212.202C391.554 212.845 392.923 213.81 394.05 215.016C395.177 216.222 396.062 217.669 396.706 219.278C397.35 220.886 397.672 222.655 397.672 224.665ZM394.452 224.665C394.452 222.655 394.05 220.805 393.245 219.278C392.44 217.75 391.313 216.463 389.944 215.579C388.576 214.694 386.966 214.212 385.114 214.212C383.263 214.212 381.652 214.694 380.203 215.579C378.835 216.463 377.708 217.669 376.903 219.278C376.098 220.886 375.695 222.655 375.695 224.665C375.695 226.675 376.098 228.444 376.903 230.052C377.708 231.661 378.835 232.867 380.203 233.751C381.652 234.636 383.263 235.118 385.114 235.118C386.966 235.118 388.576 234.636 389.944 233.751C391.313 232.867 392.44 231.58 393.245 230.052C394.05 228.444 394.452 226.675 394.452 224.665Z" fill="black"/>
<path d="M416.187 234.793C416.589 234.793 416.992 234.954 417.233 235.195C417.555 235.517 417.716 235.838 417.716 236.24C417.716 236.642 417.555 237.044 417.233 237.286C416.911 237.527 416.589 237.688 416.187 237.688H403.226C402.824 237.688 402.421 237.527 402.18 237.205C401.858 236.884 401.777 236.562 401.777 236.16V213.002C401.777 212.6 401.938 212.198 402.26 211.957C402.582 211.635 402.904 211.555 403.387 211.555C403.79 211.555 404.192 211.716 404.434 211.957C404.756 212.278 404.917 212.6 404.917 213.002V235.356L404.192 234.712H416.267L416.187 234.793Z" fill="black"/>
<path d="M438.888 211.555C439.291 211.555 439.693 211.716 439.935 212.037C440.176 212.359 440.337 212.68 440.337 213.082V227.878C440.337 229.808 439.935 231.496 438.969 233.024C438.083 234.552 436.876 235.758 435.427 236.642C433.897 237.527 432.207 238.009 430.355 238.009C428.504 238.009 426.733 237.527 425.203 236.642C423.674 235.758 422.547 234.552 421.661 233.024C420.776 231.496 420.373 229.808 420.373 227.878V213.082C420.373 212.68 420.534 212.278 420.776 212.037C421.098 211.716 421.42 211.555 421.903 211.555C422.305 211.555 422.627 211.716 422.949 212.037C423.271 212.359 423.432 212.68 423.432 213.082V227.878C423.432 229.245 423.754 230.451 424.398 231.577C425.042 232.622 425.847 233.506 426.894 234.069C427.94 234.712 429.148 234.954 430.355 234.954C431.563 234.954 432.77 234.632 433.897 234.069C434.944 233.426 435.829 232.622 436.473 231.577C437.117 230.531 437.439 229.325 437.439 227.878V213.082C437.439 212.68 437.6 212.278 437.842 212.037C438.083 211.716 438.405 211.555 438.888 211.555Z" fill="black"/>
<path d="M445.328 214.449C444.925 214.449 444.523 214.289 444.281 214.047C443.959 213.806 443.879 213.404 443.879 213.002C443.879 212.6 444.04 212.198 444.281 211.957C444.603 211.716 444.925 211.555 445.328 211.555H462.716C463.118 211.555 463.521 211.716 463.763 211.957C464.085 212.198 464.245 212.6 464.245 213.002C464.245 213.485 464.085 213.806 463.763 214.047C463.441 214.289 463.118 214.449 462.716 214.449H445.328ZM454.022 237.768C453.539 237.768 453.217 237.607 452.895 237.286C452.573 236.964 452.412 236.642 452.412 236.24V213.163H455.551V236.24C455.551 236.642 455.39 237.044 455.068 237.286C454.746 237.527 454.424 237.768 453.941 237.768H454.022Z" fill="black"/>
<path d="M470.928 236.246C470.928 236.648 470.767 237.05 470.445 237.291C470.123 237.613 469.801 237.774 469.318 237.774C468.835 237.774 468.432 237.613 468.191 237.291C467.949 236.969 467.788 236.648 467.788 236.246V213.168C467.788 212.686 467.949 212.364 468.271 212.043C468.593 211.721 468.915 211.641 469.398 211.641C469.801 211.641 470.203 211.801 470.445 212.043C470.767 212.364 470.928 212.686 470.928 213.168V236.246Z" fill="black"/>
<path d="M500.149 224.665C500.149 226.595 499.827 228.364 499.183 229.972C498.539 231.58 497.653 233.027 496.526 234.234C495.399 235.44 494.111 236.405 492.501 237.048C490.972 237.691 489.281 238.093 487.43 238.093C485.578 238.093 483.888 237.772 482.358 237.048C480.829 236.405 479.541 235.44 478.414 234.234C477.287 233.027 476.401 231.58 475.757 229.972C475.113 228.364 474.791 226.595 474.791 224.665C474.791 222.735 475.113 220.966 475.757 219.278C476.401 217.589 477.287 216.222 478.414 215.016C479.541 213.81 480.829 212.845 482.358 212.202C483.888 211.558 485.578 211.156 487.43 211.156C489.281 211.156 490.891 211.478 492.501 212.202C494.031 212.845 495.399 213.81 496.526 215.016C497.653 216.222 498.539 217.669 499.183 219.278C499.827 220.886 500.149 222.655 500.149 224.665ZM496.929 224.665C496.929 222.655 496.526 220.805 495.721 219.278C494.916 217.75 493.789 216.463 492.421 215.579C491.052 214.694 489.442 214.212 487.591 214.212C485.739 214.212 484.129 214.694 482.68 215.579C481.231 216.463 480.185 217.669 479.38 219.278C478.575 220.886 478.172 222.655 478.172 224.665C478.172 226.675 478.575 228.444 479.38 230.052C480.185 231.661 481.312 232.867 482.68 233.751C484.049 234.636 485.739 235.118 487.591 235.118C489.442 235.118 491.052 234.636 492.421 233.751C493.789 232.867 494.916 231.58 495.721 230.052C496.526 228.444 496.929 226.675 496.929 224.665Z" fill="black"/>
<path d="M523.574 211.635C523.977 211.635 524.299 211.796 524.621 212.037C524.862 212.278 525.023 212.6 525.023 213.002V236.16C525.023 236.642 524.862 237.044 524.54 237.286C524.218 237.607 523.896 237.688 523.494 237.688C523.252 237.688 523.011 237.688 522.85 237.527C522.608 237.446 522.447 237.286 522.286 237.205L506.267 216.058L506.991 215.575V236.24C506.991 236.24 506.83 236.964 506.589 237.205C506.347 237.446 505.945 237.607 505.542 237.607C505.14 237.607 504.818 237.446 504.576 237.205C504.335 236.964 504.174 236.642 504.174 236.24V213.002C504.174 212.52 504.335 212.198 504.576 211.957C504.898 211.716 505.22 211.555 505.623 211.555C505.864 211.555 506.106 211.555 506.347 211.716C506.589 211.796 506.75 211.957 506.911 212.118L522.689 232.943L522.206 233.587V213.002C522.206 213.002 522.367 212.278 522.608 212.037C522.85 211.796 523.172 211.635 523.574 211.635Z" fill="black"/>
<path d="M538.225 238.171C536.374 238.171 534.764 237.93 533.395 237.367C532.027 236.804 530.658 235.92 529.37 234.714C529.209 234.553 529.048 234.312 528.968 234.151C528.887 233.91 528.807 233.668 528.807 233.427C528.807 233.025 528.968 232.704 529.209 232.382C529.531 232.06 529.853 231.899 530.256 231.899C530.578 231.899 530.9 232.06 531.222 232.302C532.188 233.266 533.234 233.99 534.361 234.473C535.488 234.955 536.776 235.196 538.225 235.196C539.352 235.196 540.318 235.035 541.204 234.633C542.089 234.312 542.814 233.829 543.297 233.186C543.86 232.543 544.102 231.819 544.102 231.015C544.102 230.05 543.78 229.166 543.216 228.522C542.653 227.879 541.848 227.316 540.882 226.914C539.916 226.512 538.789 226.11 537.501 225.788C536.374 225.547 535.327 225.145 534.361 224.743C533.395 224.341 532.59 223.859 531.866 223.296C531.141 222.733 530.658 222.009 530.256 221.205C529.853 220.401 529.692 219.436 529.692 218.31C529.692 216.863 530.095 215.657 530.819 214.612C531.544 213.566 532.59 212.682 533.959 212.119C535.247 211.556 536.776 211.234 538.547 211.234C540.077 211.234 541.526 211.476 542.894 211.958C544.263 212.441 545.309 213.164 546.195 214.049C546.678 214.531 546.919 215.014 546.919 215.416C546.919 215.818 546.758 216.139 546.436 216.461C546.114 216.783 545.792 216.943 545.39 216.943C545.148 216.943 544.826 216.863 544.665 216.622C544.263 216.139 543.699 215.737 543.055 215.335C542.411 214.933 541.687 214.692 540.962 214.451C540.157 214.21 539.433 214.129 538.628 214.129C537.501 214.129 536.454 214.29 535.569 214.612C534.683 214.933 534.039 215.416 533.556 216.059C533.073 216.702 532.832 217.426 532.832 218.23C532.832 219.195 533.073 219.919 533.637 220.562C534.2 221.205 534.925 221.688 535.81 222.09C536.696 222.492 537.742 222.813 538.869 223.135C540.077 223.457 541.204 223.778 542.25 224.18C543.297 224.582 544.182 225.065 544.907 225.628C545.631 226.19 546.275 226.914 546.678 227.799C547.08 228.683 547.322 229.809 547.322 231.095C547.322 232.462 546.919 233.668 546.195 234.794C545.39 235.84 544.343 236.724 543.055 237.287C541.687 237.93 540.238 238.252 538.547 238.252L538.225 238.171Z" fill="black"/>
<path d="M40.0087 109.838C36.2252 149.641 62.7903 184.056 99.2569 192.74L63.5148 234.231L25.4381 190.247H25.6796C9.57954 170.145 0 144.736 0 117.075C0 51.783 53.4522 -1.04569 119.06 -0.000375284C139.668 0.321261 159.069 6.0303 175.813 15.9206C114.391 20.3431 73.4163 50.1748 68.9888 56.8488C68.9888 56.8488 68.9888 56.9292 68.9083 56.9292C52.8887 69.6338 42.1017 88.5299 40.0087 109.838Z" fill="url(#paint3_linear_1887_233)"/>
</g>
<defs>
<linearGradient id="paint0_linear_1887_233" x1="81.0635" y1="117.4" x2="153.272" y2="117.4" gradientUnits="userSpaceOnUse">
<stop stop-color="#0897FD"/>
<stop offset="1" stop-color="#39AAFF"/>
</linearGradient>
<linearGradient id="paint1_linear_1887_233" x1="144.338" y1="108.313" x2="144.338" y2="291.002" gradientUnits="userSpaceOnUse">
<stop stop-color="#0897FD"/>
<stop offset="1" stop-color="#6A0AE9"/>
</linearGradient>
<linearGradient id="paint2_linear_1887_233" x1="151.744" y1="15.8381" x2="151.744" y2="212.92" gradientUnits="userSpaceOnUse">
<stop stop-color="#0897FD"/>
<stop offset="1" stop-color="#6A0AE9"/>
</linearGradient>
<linearGradient id="paint3_linear_1887_233" x1="11.9141" y1="204.48" x2="134.388" y2="-7.92056" gradientUnits="userSpaceOnUse">
<stop stop-color="#0897FD"/>
<stop offset="1" stop-color="#39AAFF"/>
</linearGradient>
<clipPath id="clip0_1887_233">
<rect width="547" height="291" fill="white"/>
</clipPath>
</defs>
</svg>
