<svg width="897" height="377" viewBox="0 0 897 377" fill="none" xmlns="http://www.w3.org/2000/svg">
<g clip-path="url(#clip0_1886_139)">
<path d="M181.15 188.346C173.129 194.909 162.816 198.867 151.67 198.867C125.836 198.867 104.898 177.929 104.898 152.094C104.898 126.259 125.836 105.32 151.67 105.32C177.504 105.32 198.442 126.259 198.442 152.094C198.442 160.74 196.046 168.866 191.984 175.741C189.171 180.533 185.525 184.804 181.254 188.242L181.15 188.346Z" fill="url(#paint0_linear_1886_139)"/>
<path d="M244.797 275.849L161.254 372.521C156.149 378.458 146.982 378.458 141.878 372.521L117.711 344.602L221.255 224.179L233.547 209.907C245.11 193.552 251.985 173.655 251.985 152.092C251.985 148.133 251.777 144.175 251.256 140.32C254.172 152.717 262.61 200.219 244.797 275.849Z" fill="url(#paint1_linear_1886_139)"/>
<path d="M303.34 147.714C304.277 185.112 291.673 219.489 270.11 246.47C269.172 247.72 268.131 248.97 267.089 250.116L265.318 252.095L244.797 275.846C262.61 200.217 254.172 152.715 251.255 140.318C250.214 131.255 247.922 122.609 244.589 114.483C228.651 75.002 188.233 48.0213 142.295 52.1882C122.398 54.0633 104.064 61.7721 89.2725 73.6478C95.0018 65.0014 131.044 17.4988 227.505 20.624C271.673 46.2504 301.986 93.5447 303.34 147.714Z" fill="url(#paint2_linear_1886_139)"/>
<path d="M525.117 175.011C525.117 188.97 522.825 201.991 518.137 214.18C513.45 226.264 506.887 236.993 498.449 246.161C490.012 255.328 479.907 262.62 468.24 267.828C456.573 273.037 443.865 275.641 430.115 275.641C416.364 275.641 403.656 273.037 392.093 267.828C380.53 262.62 370.53 255.432 362.092 246.161C353.654 236.993 347.092 226.264 342.404 214.18C337.717 202.096 335.425 189.074 335.425 175.011C335.425 160.947 337.717 148.03 342.404 135.946C347.092 123.862 353.654 113.132 362.092 103.965C370.53 94.798 380.53 87.5059 392.093 82.2973C403.656 77.0887 416.26 74.4844 430.115 74.4844C443.969 74.4844 456.573 77.0887 468.24 82.2973C479.907 87.5059 489.908 94.6938 498.449 103.965C506.887 113.237 513.45 123.862 518.137 135.946C522.825 148.03 525.117 161.052 525.117 175.011ZM488.762 175.011C488.762 162.51 486.262 151.259 481.262 141.051C476.261 130.842 469.386 122.82 460.532 116.883C451.677 110.945 441.677 107.924 430.115 107.924C418.552 107.924 408.447 110.945 399.697 116.883C390.947 122.82 384.072 130.842 379.176 140.946C374.28 151.051 371.78 162.406 371.78 175.011C371.78 187.616 374.28 198.866 379.176 208.971C384.072 219.076 390.947 227.201 399.697 233.139C408.447 239.077 418.552 242.098 430.115 242.098C441.677 242.098 451.782 239.077 460.532 233.139C469.282 227.201 476.157 219.076 481.262 208.971C486.366 198.866 488.762 187.511 488.762 175.011Z" fill="black"/>
<path d="M696.996 76.6693C701.683 76.6693 705.642 78.2319 709.184 81.2529C712.621 84.3781 714.392 88.2324 714.392 92.816C714.392 95.212 713.871 97.7121 712.725 100.316L643.661 261.784C641.995 265.534 639.599 268.242 636.578 270.013C633.557 271.784 630.432 272.618 627.202 272.618C624.182 272.409 621.369 271.472 618.556 269.701C615.744 267.93 613.661 265.326 612.098 261.992L543.138 99.8998C542.617 98.7539 542.201 97.608 541.992 96.3579C541.784 95.1078 541.68 93.9619 541.68 92.9202C541.68 87.5032 543.659 83.3363 547.513 80.5237C551.367 77.711 555.118 76.1484 558.659 76.1484C565.743 76.1484 570.847 79.7945 574.076 87.0865L635.224 230.949L625.432 231.261L681.579 87.0865C684.704 80.0028 689.808 76.461 696.996 76.461V76.6693Z" fill="black"/>
<path d="M805.957 121.049L745.643 263.036C744.393 266.578 742.309 269.287 739.601 271.266C736.892 273.245 733.976 274.183 730.851 274.183C725.851 274.183 722.1 272.829 719.704 270.016C717.309 267.203 716.059 263.766 716.059 259.703C716.059 258.036 716.371 256.265 716.892 254.39L786.477 87.2975C787.935 83.5473 790.227 80.7346 793.352 78.6512C796.373 76.5677 799.706 75.7344 803.248 76.151C806.582 76.151 809.707 77.0886 812.623 79.0679C815.54 81.0472 817.623 83.7556 818.874 87.2975L887.625 251.057C888.563 253.453 888.979 255.744 888.979 257.724C888.979 262.724 887.313 266.787 884.083 269.703C880.854 272.724 877.208 274.183 873.354 274.183C870.02 274.183 867 273.141 864.291 271.162C861.583 269.078 859.499 266.37 858.041 262.828L797.936 122.82L806.061 121.154L805.957 121.049ZM754.185 228.972L769.602 196.887H845.02L850.333 228.972H754.185Z" fill="black"/>
<path d="M277.715 308.034C279.486 308.034 281.152 308.451 282.507 309.284C283.861 310.117 285.007 311.263 285.84 312.722C286.673 314.18 287.09 315.847 287.09 317.722C287.09 319.597 286.673 321.264 285.84 322.722C285.007 324.181 283.965 325.431 282.507 326.264C281.152 327.097 279.486 327.514 277.715 327.514H267.506L267.715 326.993V340.327C267.715 340.327 267.61 341.057 267.298 341.369C266.985 341.682 266.673 341.786 266.256 341.786C265.84 341.786 265.423 341.682 265.215 341.369C265.006 341.057 264.798 340.744 264.798 340.327V309.388C264.798 309.388 264.902 308.659 265.215 308.346C265.527 308.034 265.84 307.93 266.256 307.93H277.715V308.034ZM277.715 324.701C278.965 324.701 280.111 324.389 280.944 323.764C281.882 323.139 282.611 322.305 283.132 321.16C283.652 320.014 283.965 318.868 283.965 317.514C283.965 316.159 283.652 315.013 283.132 313.972C282.611 312.93 281.882 312.201 280.944 311.576C280.007 311.055 278.965 310.742 277.715 310.742H267.506L267.715 310.326V324.91L267.402 324.597H277.715V324.701Z" fill="black"/>
<path d="M311.049 338.973C311.049 338.973 311.778 339.077 312.09 339.39C312.403 339.702 312.507 340.015 312.507 340.327C312.507 340.744 312.403 341.057 312.09 341.369C311.778 341.682 311.465 341.786 311.049 341.786H293.861C293.861 341.786 293.132 341.682 292.819 341.369C292.507 341.057 292.402 340.744 292.402 340.327V309.388C292.402 309.388 292.507 308.659 292.819 308.346C293.132 308.034 293.444 307.93 293.965 307.93C294.382 307.93 294.694 308.034 295.007 308.346C295.319 308.659 295.423 308.971 295.423 309.388V339.702L294.486 338.869H311.049V338.973Z" fill="black"/>
<path d="M328.133 311.683L316.362 340.851C316.362 340.851 316.049 341.372 315.841 341.58C315.633 341.788 315.32 341.788 315.112 341.788C314.695 341.788 314.278 341.684 314.07 341.372C313.862 341.163 313.757 340.851 313.653 340.538C313.653 340.33 313.653 340.226 313.653 339.913L326.362 308.766C326.362 308.766 326.674 308.141 326.987 308.036C327.195 307.932 327.508 307.828 327.82 307.828C328.133 307.828 328.445 307.828 328.654 308.141C328.862 308.349 329.07 308.557 329.175 308.87L341.883 339.913C341.883 339.913 341.883 340.33 341.883 340.538C341.883 340.955 341.779 341.372 341.466 341.58C341.154 341.788 340.841 341.997 340.425 341.997C340.112 341.997 339.8 341.997 339.591 341.684C339.383 341.476 339.175 341.267 339.071 340.955L327.091 311.578L327.924 311.787L328.133 311.683ZM319.278 331.996L320.528 329.183H335.529L336.154 331.996H319.383H319.278Z" fill="black"/>
<path d="M371.363 310.537C371.363 310.537 371.988 311.162 371.988 311.474C371.988 311.891 371.988 312.308 371.676 312.62C371.467 312.933 371.155 313.037 370.842 313.141C370.53 313.141 370.113 313.141 369.801 312.933C368.551 312.099 367.301 311.474 365.842 311.058C364.384 310.641 362.926 310.328 361.363 310.328C359.384 310.328 357.613 310.641 355.842 311.37C354.071 312.099 352.717 313.037 351.467 314.391C350.217 315.641 349.279 317.204 348.55 318.975C347.821 320.746 347.509 322.725 347.509 324.808C347.509 326.892 347.821 328.975 348.55 330.746C349.279 332.517 350.217 334.08 351.571 335.33C352.821 336.58 354.279 337.621 355.946 338.247C357.613 338.872 359.384 339.288 361.363 339.288C362.926 339.288 364.384 339.08 365.842 338.559C367.196 338.142 368.551 337.517 369.801 336.684C370.113 336.476 370.426 336.371 370.842 336.476C371.259 336.476 371.467 336.684 371.78 336.996C372.092 337.309 372.197 337.726 372.092 338.142C372.092 338.559 371.78 338.872 371.467 339.08C370.634 339.601 369.697 340.122 368.655 340.538C367.613 340.955 366.363 341.372 365.217 341.58C363.967 341.893 362.821 341.997 361.571 341.997C359.28 341.997 357.092 341.58 355.009 340.747C353.029 339.913 351.154 338.767 349.592 337.205C348.029 335.642 346.779 333.871 345.946 331.684C345.113 329.496 344.592 327.204 344.592 324.6C344.592 321.996 345.008 319.808 345.842 317.62C346.675 315.433 347.925 313.662 349.488 312.099C351.05 310.537 352.821 309.391 354.905 308.453C356.988 307.62 359.175 307.203 361.467 307.203C363.342 307.203 365.113 307.516 366.78 307.932C368.446 308.453 370.009 309.182 371.467 310.12L371.363 310.537Z" fill="black"/>
<path d="M378.446 308.039H396.155C396.155 308.039 396.884 308.143 397.196 308.456C397.509 308.768 397.613 309.081 397.613 309.497C397.613 309.914 397.509 310.227 397.196 310.539C396.884 310.852 396.571 310.956 396.155 310.956H379.592L380.113 310.123V323.665L379.592 323.04H394.071C394.071 323.04 394.801 323.144 395.113 323.457C395.426 323.769 395.53 324.082 395.53 324.498C395.53 324.915 395.426 325.228 395.113 325.54C394.801 325.853 394.488 325.957 394.071 325.957H379.696L380.113 325.436V339.291L379.904 338.978H396.259C396.259 338.978 396.988 339.082 397.301 339.395C397.613 339.708 397.717 340.02 397.717 340.437C397.717 340.853 397.613 341.166 397.301 341.478C396.988 341.791 396.676 341.895 396.259 341.895H378.55C378.55 341.895 377.821 341.791 377.508 341.478C377.196 341.166 377.092 340.853 377.092 340.437V309.497C377.092 309.497 377.196 308.768 377.508 308.456C377.821 308.143 378.133 308.039 378.55 308.039H378.446Z" fill="black"/>
<path d="M416.676 341.786C416.676 341.786 415.843 341.682 415.634 341.369C415.322 341.057 415.218 340.744 415.218 340.327V309.388C415.218 309.388 415.322 308.659 415.634 308.346C415.947 308.034 416.259 307.93 416.676 307.93H434.281C434.281 307.93 435.01 308.034 435.322 308.346C435.635 308.659 435.739 308.971 435.739 309.388C435.739 309.805 435.635 310.117 435.322 310.43C435.01 310.742 434.697 310.847 434.281 310.847H418.03L418.239 310.534V323.347L418.03 322.931H432.197C432.197 322.931 432.927 323.035 433.239 323.347C433.552 323.66 433.656 323.972 433.656 324.285C433.656 324.701 433.552 325.014 433.239 325.326C432.927 325.535 432.614 325.743 432.197 325.743H417.926L418.239 325.326V340.327C418.239 340.327 418.135 341.057 417.822 341.369C417.509 341.682 417.197 341.786 416.78 341.786H416.676Z" fill="black"/>
<path d="M470.948 324.912C470.948 327.413 470.532 329.809 469.802 331.892C469.073 333.975 467.927 335.851 466.469 337.413C465.011 338.976 463.344 340.226 461.365 341.059C459.386 341.893 457.198 342.309 454.906 342.309C452.615 342.309 450.427 341.893 448.448 341.059C446.469 340.226 444.802 338.976 443.344 337.413C441.885 335.851 440.739 333.975 440.01 331.892C439.281 329.809 438.864 327.413 438.864 324.912C438.864 322.412 439.281 320.016 440.01 317.933C440.843 315.849 441.885 313.974 443.344 312.412C444.802 310.849 446.469 309.599 448.448 308.766C450.427 307.932 452.615 307.516 454.906 307.516C457.198 307.516 459.386 307.932 461.365 308.766C463.344 309.599 465.011 310.849 466.469 312.412C467.927 313.974 469.073 315.849 469.802 317.933C470.636 320.016 470.948 322.412 470.948 324.912ZM467.927 324.912C467.927 322.1 467.407 319.495 466.261 317.308C465.115 315.12 463.656 313.453 461.677 312.203C459.698 310.953 457.406 310.328 454.906 310.328C452.406 310.328 450.115 310.953 448.135 312.203C446.156 313.453 444.594 315.12 443.552 317.308C442.406 319.495 441.885 321.996 441.885 324.912C441.885 327.829 442.406 330.329 443.552 332.517C444.698 334.705 446.156 336.371 448.135 337.621C450.115 338.872 452.406 339.497 454.906 339.497C457.406 339.497 459.802 338.872 461.677 337.621C463.656 336.371 465.219 334.705 466.261 332.517C467.407 330.329 467.927 327.829 467.927 324.912Z" fill="black"/>
<path d="M478.24 341.786C478.24 341.786 477.407 341.682 477.094 341.369C476.782 341.057 476.678 340.744 476.678 340.327V309.388C476.678 309.388 476.782 308.659 477.094 308.346C477.407 308.034 477.719 307.93 478.136 307.93H491.157C493.032 307.93 494.595 308.346 496.053 309.076C497.512 309.909 498.657 310.951 499.491 312.305C500.324 313.659 500.741 315.222 500.741 316.993C500.741 318.451 500.532 319.701 500.012 320.951C499.491 322.201 498.762 323.139 497.824 323.972C496.887 324.806 495.845 325.431 494.699 325.743L493.032 325.222C494.178 325.222 495.324 325.743 496.366 326.368C497.407 326.993 498.241 327.931 498.866 329.077C499.491 330.223 499.803 331.577 499.803 333.244C499.803 334.598 499.907 335.744 500.012 336.473C500.116 337.202 500.324 337.827 500.532 338.244C500.741 338.661 501.053 338.973 501.366 339.181C501.678 339.39 501.887 339.598 501.991 340.015C502.095 340.431 501.991 340.744 501.887 341.057C501.783 341.369 501.574 341.473 501.366 341.577C501.157 341.682 500.845 341.786 500.637 341.786C500.428 341.786 500.116 341.786 499.907 341.577C499.491 341.265 498.97 340.952 498.553 340.327C498.137 339.806 497.72 338.973 497.407 337.931C497.095 336.89 496.991 335.431 496.991 333.452C496.991 332.202 496.782 331.16 496.366 330.327C495.949 329.493 495.428 328.868 494.803 328.452C494.178 328.035 493.449 327.722 492.72 327.514C491.991 327.306 491.261 327.202 490.532 327.202H479.282L479.803 326.577V340.223C479.803 340.223 479.699 340.952 479.386 341.265C479.178 341.577 478.761 341.682 478.344 341.682L478.24 341.786ZM479.178 324.701H491.261C492.303 324.701 493.345 324.285 494.386 323.66C495.324 323.035 496.157 322.201 496.678 321.055C497.303 320.014 497.616 318.659 497.616 317.201C497.616 315.326 496.991 313.868 495.741 312.617C494.491 311.367 492.928 310.847 490.845 310.847H479.282L479.594 310.221V325.431L479.074 324.701H479.178Z" fill="black"/>
<path d="M518.345 310.742C518.345 310.742 517.616 310.638 517.303 310.326C516.991 310.013 516.887 309.701 516.887 309.284C516.887 308.867 516.991 308.555 517.303 308.346C517.616 308.138 517.928 307.93 518.345 307.93H541.366C541.366 307.93 542.096 308.034 542.408 308.346C542.721 308.555 542.825 308.971 542.825 309.388C542.825 309.805 542.721 310.117 542.408 310.326C542.096 310.534 541.783 310.742 541.366 310.742H518.345ZM529.804 341.786C529.804 341.786 528.97 341.682 528.762 341.369C528.449 341.057 528.345 340.744 528.345 340.327V309.596H531.366V340.327C531.366 340.327 531.262 341.057 530.95 341.369C530.637 341.682 530.325 341.786 529.908 341.786H529.804Z" fill="black"/>
<path d="M549.179 308.039H566.888C566.888 308.039 567.617 308.143 567.93 308.456C568.242 308.768 568.347 309.081 568.347 309.497C568.347 309.914 568.242 310.227 567.93 310.539C567.617 310.748 567.305 310.956 566.888 310.956H550.325L550.846 310.123V323.665L550.325 323.04H564.805C564.805 323.04 565.534 323.144 565.846 323.457C566.159 323.769 566.263 324.082 566.263 324.498C566.263 324.915 566.159 325.228 565.846 325.54C565.534 325.853 565.221 325.957 564.805 325.957H550.429L550.846 325.436V339.291L550.638 338.978H566.992C566.992 338.978 567.721 339.082 568.034 339.395C568.346 339.708 568.451 340.02 568.451 340.437C568.451 340.853 568.346 341.166 568.034 341.478C567.721 341.791 567.409 341.895 566.992 341.895H549.284C549.284 341.895 548.554 341.791 548.242 341.478C547.929 341.166 547.825 340.853 547.825 340.437V309.497C547.825 309.497 547.929 308.768 548.242 308.456C548.554 308.143 548.867 308.039 549.284 308.039H549.179Z" fill="black"/>
<path d="M598.556 310.537C598.556 310.537 599.181 311.162 599.285 311.474C599.285 311.891 599.285 312.308 598.972 312.62C598.764 312.933 598.451 313.037 598.139 313.141C597.826 313.245 597.41 313.141 597.097 312.933C595.847 312.099 594.597 311.474 593.139 311.058C591.785 310.641 590.222 310.328 588.66 310.328C586.68 310.328 584.909 310.641 583.139 311.37C581.368 312.099 580.014 313.037 578.764 314.391C577.513 315.641 576.576 317.204 575.847 318.975C575.118 320.746 574.805 322.725 574.805 324.808C574.805 326.892 575.118 328.975 575.847 330.746C576.576 332.517 577.513 334.08 578.868 335.33C580.118 336.58 581.576 337.621 583.243 338.247C584.91 338.872 586.68 339.288 588.66 339.288C590.222 339.288 591.68 339.08 593.139 338.559C594.493 338.142 595.847 337.517 597.097 336.684C597.41 336.476 597.722 336.371 598.139 336.476C598.556 336.476 598.764 336.684 598.972 336.996C599.285 337.309 599.389 337.726 599.285 338.142C599.285 338.559 598.972 338.872 598.66 339.08C597.826 339.601 596.889 340.122 595.847 340.538C594.701 340.955 593.556 341.372 592.41 341.58C591.16 341.893 590.014 341.997 588.764 341.997C586.472 341.997 584.284 341.58 582.201 340.747C580.222 339.913 578.347 338.767 576.784 337.205C575.222 335.642 573.972 333.871 573.138 331.684C572.305 329.496 571.784 327.204 571.784 324.6C571.784 321.996 572.201 319.808 573.034 317.62C573.868 315.433 575.118 313.662 576.68 312.099C578.243 310.537 580.014 309.391 582.097 308.453C584.18 307.62 586.368 307.203 588.764 307.203C590.639 307.203 592.41 307.516 594.076 307.932C595.743 308.453 597.306 309.182 598.66 310.12L598.556 310.537Z" fill="black"/>
<path d="M605.743 308.039C605.743 308.039 606.472 308.143 606.785 308.456C607.097 308.768 607.202 309.081 607.202 309.497V340.332C607.202 340.332 606.993 341.062 606.681 341.374C606.368 341.687 606.056 341.791 605.639 341.791C605.222 341.791 604.806 341.687 604.597 341.374C604.285 341.062 604.181 340.749 604.181 340.332V309.497C604.181 309.497 604.285 308.768 604.597 308.456C604.91 308.143 605.222 308.039 605.743 308.039ZM605.535 323.144H628.452V325.957H605.327L605.535 323.144ZM628.452 308.039C628.452 308.039 629.285 308.143 629.494 308.456C629.806 308.768 629.91 309.081 629.91 309.497V340.332C629.91 340.332 629.702 341.062 629.494 341.374C629.181 341.687 628.869 341.791 628.452 341.791C628.035 341.791 627.723 341.687 627.41 341.374C627.098 341.062 626.994 340.749 626.994 340.332V309.497C626.994 309.497 627.098 308.768 627.41 308.456C627.723 308.143 628.035 308.039 628.452 308.039Z" fill="black"/>
<path d="M659.077 342.307C656.682 342.307 654.494 341.994 652.723 341.161C650.952 340.327 649.181 339.181 647.515 337.515C647.306 337.411 647.202 337.202 647.098 336.994C646.994 336.785 646.89 336.577 646.89 336.369C646.89 335.952 646.994 335.64 647.306 335.327C647.619 335.015 647.931 334.806 648.348 334.806C648.765 334.806 649.077 335.015 649.39 335.327C650.64 336.681 652.098 337.723 653.661 338.452C655.223 339.181 656.994 339.494 658.765 339.494C660.327 339.494 661.682 339.286 662.932 338.765C664.182 338.244 665.119 337.619 665.848 336.681C666.578 335.744 666.89 334.702 666.89 333.556C666.89 332.098 666.473 330.848 665.64 329.91C664.807 328.973 663.765 328.243 662.411 327.618C661.057 326.993 659.598 326.472 658.036 325.952C656.682 325.535 655.432 325.118 654.286 324.597C653.14 324.076 651.994 323.451 651.056 322.722C650.119 321.993 649.39 321.055 648.869 320.014C648.348 318.972 648.14 317.618 648.14 316.159C648.14 314.493 648.556 312.93 649.494 311.576C650.431 310.222 651.681 309.18 653.348 308.451C655.015 307.721 656.89 307.305 659.077 307.305C660.952 307.305 662.828 307.617 664.598 308.242C666.369 308.867 667.723 309.805 668.765 311.055C669.286 311.576 669.494 311.992 669.494 312.409C669.494 312.722 669.39 313.034 668.974 313.347C668.557 313.659 668.349 313.868 667.932 313.868C667.619 313.868 667.307 313.763 667.098 313.555C666.578 312.93 665.848 312.305 665.015 311.784C664.182 311.263 663.244 310.847 662.203 310.534C661.161 310.222 660.119 310.117 659.077 310.117C657.515 310.117 656.161 310.326 655.015 310.847C653.765 311.263 652.827 311.992 652.202 312.826C651.473 313.659 651.161 314.701 651.161 315.951C651.161 317.305 651.577 318.451 652.306 319.285C653.036 320.118 654.077 320.847 655.327 321.472C656.577 321.993 657.932 322.514 659.286 323.035C660.64 323.451 661.994 323.868 663.244 324.389C664.494 324.91 665.64 325.535 666.682 326.264C667.619 326.993 668.453 327.931 668.974 329.077C669.494 330.223 669.807 331.577 669.807 333.348C669.807 335.119 669.39 336.473 668.453 337.827C667.515 339.181 666.265 340.223 664.598 340.952C662.932 341.682 661.057 342.098 658.869 342.202L659.077 342.307Z" fill="black"/>
<path d="M705.85 324.912C705.85 327.413 705.433 329.809 704.704 331.892C703.871 333.975 702.829 335.851 701.37 337.413C699.912 338.976 698.245 340.226 696.266 341.059C694.287 341.893 692.099 342.309 689.808 342.309C687.516 342.309 685.328 341.893 683.349 341.059C681.37 340.226 679.703 338.976 678.245 337.413C676.787 335.851 675.641 333.975 674.911 331.892C674.078 329.809 673.766 327.413 673.766 324.912C673.766 322.412 674.182 320.016 674.911 317.933C675.745 315.849 676.787 313.974 678.245 312.412C679.703 310.849 681.37 309.599 683.349 308.766C685.328 307.932 687.516 307.516 689.808 307.516C692.099 307.516 694.287 307.932 696.266 308.766C698.245 309.599 699.912 310.849 701.37 312.412C702.829 313.974 703.975 315.849 704.704 317.933C705.537 320.016 705.85 322.412 705.85 324.912ZM702.725 324.912C702.725 322.1 702.204 319.495 701.058 317.308C699.912 315.12 698.454 313.453 696.474 312.203C694.495 310.953 692.204 310.328 689.703 310.328C687.203 310.328 684.912 310.953 682.932 312.203C680.953 313.453 679.391 315.12 678.245 317.308C677.099 319.495 676.578 321.996 676.578 324.912C676.578 327.829 677.099 330.329 678.245 332.517C679.391 334.705 680.849 336.371 682.932 337.621C684.912 338.872 687.203 339.497 689.703 339.497C692.204 339.497 694.495 338.872 696.474 337.621C698.454 336.371 700.016 334.705 701.058 332.517C702.204 330.329 702.725 327.829 702.725 324.912Z" fill="black"/>
<path d="M730.121 338.973C730.121 338.973 730.85 339.077 731.163 339.39C731.475 339.702 731.579 340.015 731.579 340.327C731.579 340.744 731.475 341.057 731.163 341.369C730.85 341.682 730.537 341.786 730.121 341.786H712.933C712.933 341.786 712.204 341.682 711.891 341.369C711.579 341.057 711.475 340.744 711.475 340.327V309.388C711.475 309.388 711.579 308.659 711.891 308.346C712.204 308.034 712.516 307.93 713.037 307.93C713.454 307.93 713.766 308.034 714.079 308.346C714.391 308.659 714.495 308.971 714.495 309.388V339.702L713.558 338.869H730.121V338.973Z" fill="black"/>
<path d="M758.872 308.039C758.872 308.039 759.705 308.143 759.914 308.456C760.122 308.768 760.33 309.081 760.33 309.497V329.499C760.33 331.895 759.809 334.082 758.664 335.957C757.518 337.937 756.059 339.395 754.08 340.541C752.205 341.687 750.018 342.312 747.622 342.312C745.226 342.312 743.142 341.791 741.163 340.541C739.288 339.395 737.726 337.832 736.58 335.957C735.434 334.082 734.913 331.895 734.913 329.499V309.497C734.913 309.497 735.017 308.768 735.33 308.456C735.642 308.143 735.955 308.039 736.476 308.039C736.892 308.039 737.205 308.143 737.517 308.456C737.83 308.768 737.934 309.081 737.934 309.497V329.499C737.934 331.374 738.351 333.04 739.288 334.499C740.122 335.957 741.372 337.207 742.83 338.041C744.288 338.874 745.955 339.395 747.622 339.395C749.288 339.395 751.059 338.978 752.518 338.041C753.976 337.207 755.226 335.957 756.059 334.499C756.893 333.04 757.414 331.374 757.414 329.499V309.497C757.414 309.497 757.518 308.768 757.83 308.456C758.039 308.143 758.455 308.039 758.872 308.039Z" fill="black"/>
<path d="M766.788 310.742C766.788 310.742 766.059 310.638 765.747 310.326C765.434 310.013 765.33 309.701 765.33 309.284C765.33 308.867 765.434 308.555 765.747 308.346C766.059 308.138 766.372 307.93 766.788 307.93H789.81C789.81 307.93 790.539 308.034 790.851 308.346C791.164 308.555 791.268 308.971 791.268 309.388C791.268 309.805 791.164 310.117 790.851 310.326C790.539 310.534 790.226 310.742 789.81 310.742H766.788ZM778.247 341.786C778.247 341.786 777.414 341.682 777.205 341.369C776.893 341.057 776.789 340.744 776.789 340.327V309.596H779.81V340.327C779.81 340.327 779.705 341.057 779.393 341.369C779.08 341.682 778.768 341.786 778.351 341.786H778.247Z" fill="black"/>
<path d="M799.185 340.332C799.185 340.332 798.977 341.062 798.664 341.374C798.352 341.687 798.039 341.791 797.622 341.791C797.206 341.791 796.789 341.687 796.581 341.374C796.268 341.062 796.164 340.749 796.164 340.332V309.497C796.164 309.497 796.268 308.768 796.581 308.456C796.893 308.143 797.206 308.039 797.727 308.039C798.143 308.039 798.456 308.143 798.768 308.456C799.081 308.768 799.185 309.081 799.185 309.497V340.332Z" fill="black"/>
<path d="M837.103 324.912C837.103 327.413 836.686 329.809 835.957 331.892C835.123 333.975 834.082 335.851 832.623 337.413C831.165 338.976 829.498 340.226 827.519 341.059C825.54 341.893 823.352 342.309 821.061 342.309C818.769 342.309 816.581 341.893 814.602 341.059C812.623 340.226 810.956 338.976 809.498 337.413C808.039 335.851 806.894 333.975 806.164 331.892C805.331 329.809 805.019 327.413 805.019 324.912C805.019 322.412 805.435 320.016 806.164 317.933C806.998 315.849 808.039 313.974 809.498 312.412C810.956 310.849 812.623 309.599 814.602 308.766C816.581 307.932 818.769 307.516 821.061 307.516C823.352 307.516 825.54 307.932 827.519 308.766C829.498 309.599 831.165 310.849 832.623 312.412C834.082 313.974 835.228 315.849 835.957 317.933C836.79 320.016 837.103 322.412 837.103 324.912ZM834.082 324.912C834.082 322.1 833.561 319.495 832.415 317.308C831.269 315.12 829.811 313.453 827.832 312.203C825.852 310.953 823.561 310.328 821.061 310.328C818.561 310.328 816.269 310.953 814.29 312.203C812.31 313.453 810.748 315.12 809.602 317.308C808.456 319.495 807.935 321.996 807.935 324.912C807.935 327.829 808.456 330.329 809.602 332.517C810.748 334.705 812.206 336.371 814.29 337.621C816.269 338.872 818.561 339.497 821.061 339.497C823.561 339.497 825.852 338.872 827.832 337.621C829.811 336.371 831.373 334.705 832.415 332.517C833.561 330.329 834.082 327.829 834.082 324.912Z" fill="black"/>
<path d="M867.52 308.039C867.52 308.039 868.249 308.143 868.458 308.456C868.666 308.664 868.874 309.081 868.874 309.393V340.332C868.874 340.332 868.77 341.166 868.458 341.478C868.145 341.791 867.833 341.895 867.416 341.895C867.208 341.895 866.999 341.895 866.791 341.791C866.583 341.791 866.374 341.583 866.27 341.478L844.707 312.414L845.54 311.998V340.645C845.54 340.645 845.436 341.27 845.124 341.583C844.915 341.895 844.499 341.999 844.186 341.999C843.77 341.999 843.457 341.895 843.249 341.583C843.04 341.374 842.832 341.062 842.832 340.645V309.602C842.832 309.602 842.936 308.768 843.249 308.56C843.561 308.352 843.874 308.143 844.186 308.143C844.395 308.143 844.603 308.143 844.811 308.247C845.02 308.247 845.228 308.456 845.332 308.664L866.583 337.312L866.062 338.145V309.393C866.062 309.393 866.166 308.664 866.478 308.456C866.791 308.247 867.103 308.039 867.416 308.039H867.52Z" fill="black"/>
<path d="M886.063 342.307C883.667 342.307 881.479 341.994 879.708 341.161C877.938 340.327 876.167 339.181 874.5 337.515C874.292 337.411 874.188 337.202 874.083 336.994C873.979 336.785 873.875 336.577 873.875 336.369C873.875 335.952 873.979 335.64 874.292 335.327C874.604 335.015 874.917 334.806 875.333 334.806C875.75 334.806 876.063 335.015 876.375 335.327C877.625 336.681 879.083 337.723 880.646 338.452C882.209 339.181 883.979 339.494 885.75 339.494C887.313 339.494 888.667 339.286 889.917 338.765C891.167 338.244 892.105 337.619 892.834 336.681C893.563 335.744 893.875 334.702 893.875 333.556C893.875 332.098 893.459 330.848 892.625 329.91C891.792 328.973 890.75 328.243 889.396 327.618C888.042 326.993 886.584 326.472 885.021 325.952C883.667 325.535 882.417 325.118 881.271 324.597C880.125 324.076 878.979 323.451 878.042 322.722C877.104 321.993 876.375 321.055 875.854 320.014C875.333 318.972 875.125 317.618 875.125 316.159C875.125 314.493 875.542 312.93 876.479 311.576C877.417 310.222 878.667 309.18 880.334 308.451C882 307.721 883.875 307.305 886.063 307.305C887.938 307.305 889.813 307.617 891.584 308.242C893.355 308.867 894.709 309.805 895.75 311.055C896.271 311.576 896.48 311.992 896.48 312.409C896.48 312.722 896.376 313.034 895.959 313.347C895.542 313.659 895.334 313.868 894.917 313.868C894.605 313.868 894.292 313.763 894.084 313.555C893.563 312.93 892.834 312.305 892 311.784C891.167 311.263 890.23 310.847 889.188 310.534C888.146 310.222 887.104 310.117 886.063 310.117C884.5 310.117 883.146 310.326 882 310.847C880.75 311.263 879.813 311.992 879.188 312.826C878.458 313.659 878.146 314.701 878.146 315.951C878.146 317.305 878.563 318.451 879.292 319.285C880.021 320.118 881.063 320.847 882.313 321.472C883.563 321.993 884.917 322.514 886.271 323.035C887.625 323.451 888.98 323.868 890.23 324.389C891.48 324.91 892.625 325.535 893.667 326.264C894.605 326.993 895.438 327.931 895.959 329.077C896.48 330.223 896.792 331.577 896.792 333.348C896.792 335.119 896.376 336.473 895.438 337.827C894.5 339.181 893.25 340.223 891.584 340.952C889.917 341.682 888.042 342.098 885.854 342.202L886.063 342.307Z" fill="black"/>
<path d="M51.772 142.296C46.8761 193.861 81.2519 238.447 128.44 249.698L82.1894 303.451L32.9174 246.468H33.2299C12.3961 220.425 0 187.507 0 151.671C0 67.0834 69.1683 -1.35792 154.066 -0.00368099C180.733 0.413009 205.838 7.80925 227.505 20.6225C148.024 26.3519 95.0022 64.9999 89.2729 73.6462C89.2729 73.6462 89.2729 73.7504 89.1687 73.7504C68.4391 90.2096 54.4804 114.69 51.772 142.296Z" fill="url(#paint3_linear_1886_139)"/>
</g>
<defs>
<linearGradient id="paint0_linear_1886_139" x1="104.898" y1="152.094" x2="198.338" y2="152.094" gradientUnits="userSpaceOnUse">
<stop stop-color="#0897FD"/>
<stop offset="1" stop-color="#39AAFF"/>
</linearGradient>
<linearGradient id="paint1_linear_1886_139" x1="186.775" y1="140.32" x2="186.775" y2="377" gradientUnits="userSpaceOnUse">
<stop stop-color="#0897FD"/>
<stop offset="1" stop-color="#6A0AE9"/>
</linearGradient>
<linearGradient id="paint2_linear_1886_139" x1="196.358" y1="20.5198" x2="196.358" y2="275.846" gradientUnits="userSpaceOnUse">
<stop stop-color="#0897FD"/>
<stop offset="1" stop-color="#6A0AE9"/>
</linearGradient>
<linearGradient id="paint3_linear_1886_139" x1="15.417" y1="264.907" x2="174.178" y2="-10.104" gradientUnits="userSpaceOnUse">
<stop stop-color="#0897FD"/>
<stop offset="1" stop-color="#39AAFF"/>
</linearGradient>
<clipPath id="clip0_1886_139">
<rect width="897" height="377" fill="white"/>
</clipPath>
</defs>
</svg>
